<svg xmlns="http://www.w3.org/2000/svg" width="486.24" height="290.682" viewBox="0 0 486.24 290.682">
  <g id="Group_11" data-name="Group 11" transform="translate(0 0)">
    <path id="Path_1" data-name="Path 1" d="M823.853,630.738c-6.225-5.26-10.006-13.57-9.015-21.659s7.134-15.526,15.1-17.244,17.049,3.037,19.469,10.82c1.332-15,2.866-30.637,10.844-43.415,7.223-11.57,19.734-19.848,33.293-21.329s27.835,4.113,36.291,14.814,10.526,26.26,4.6,38.547c-4.363,9.051-12.4,15.787-20.823,21.267A134.388,134.388,0,0,1,821.7,632.646Z" transform="translate(-451.576 -343.322)" fill="#f2f2f2"/>
    <path id="Path_2" data-name="Path 2" d="M945.227,545.766a221.746,221.746,0,0,0-65.155,88.1c-.622,1.523,1.851,2.186,2.466.68a219.279,219.279,0,0,1,64.5-86.974c1.277-1.04-.542-2.839-1.808-1.808Z" transform="translate(-480.376 -346.755)" fill="#fff"/>
    <path id="Path_3" data-name="Path 3" d="M321.529,600.748c8.55-7.225,13.744-18.638,12.382-29.749s-9.8-21.325-20.741-23.685-23.416,4.172-26.74,14.861c-1.829-20.608-3.937-42.08-14.894-59.63-9.921-15.891-27.1-27.262-45.728-29.3S187.578,478.9,175.963,493.6s-14.458,36.068-6.324,52.944c5.992,12.432,17.033,21.683,28.6,29.21a184.581,184.581,0,0,0,126.242,27.618" transform="translate(-165 -314.761)" fill="#f2f2f2"/>
    <path id="Path_4" data-name="Path 4" d="M215.135,484.039a302,302,0,0,1,42.087,41.792,306.315,306.315,0,0,1,33.191,49.122,305.067,305.067,0,0,1,14.213,30.095c.854,2.092-2.543,3-3.387.934a299.768,299.768,0,0,0-27.391-51.825,301.653,301.653,0,0,0-36.736-45.381,300.935,300.935,0,0,0-24.461-22.252c-1.754-1.428.745-3.9,2.484-2.484Z" transform="translate(-185.756 -319.476)" fill="#fff"/>
    <path id="Path_5" data-name="Path 5" d="M628.5,480h-204V270.692a80.852,80.852,0,0,1,80.761-80.761h42.476A80.852,80.852,0,0,1,628.5,270.692Z" transform="translate(-279.466 -189.931)" fill="#f2f2f2"/>
    <path id="Path_6" data-name="Path 6" d="M586.021,480H424.5V270.693a80.136,80.136,0,0,1,15.423-47.475c.371-.506.741-1,1.123-1.5a80.742,80.742,0,0,1,17.188-16.683c.369-.268.739-.532,1.115-.8a80.569,80.569,0,0,1,17.59-9.2c.369-.14.745-.28,1.121-.415a80.493,80.493,0,0,1,17.386-4.1c.368-.05.745-.09,1.122-.129a81.762,81.762,0,0,1,17.385,0c.376.039.754.079,1.126.129a80.477,80.477,0,0,1,17.382,4.1c.376.135.752.275,1.123.415a80.37,80.37,0,0,1,17.385,9.063c.375.258.751.521,1.121.785a81.59,81.59,0,0,1,10.274,8.7,80.65,80.65,0,0,1,7.112,8.132c.38.492.75.991,1.121,1.5a80.135,80.135,0,0,1,15.424,47.476Z" transform="translate(-279.466 -189.932)" fill="#ccc"/>
    <circle id="Ellipse_1" data-name="Ellipse 1" cx="8.942" cy="8.942" r="8.942" transform="translate(284.479 178.568)" fill="#6c63ff"/>
    <path id="Path_7" data-name="Path 7" d="M586.618,486.924h-6.852l-3.26-26.429h10.113Z" transform="translate(-254.299 -203.126)" fill="#ffb8b8"/>
    <path id="Path_8" data-name="Path 8" d="M567.015,504.28H580.23v8.32H558.7A8.32,8.32,0,0,1,567.015,504.28Z" transform="translate(-246.442 -222.439)" fill="#2f2e41"/>
    <path id="Path_9" data-name="Path 9" d="M647.618,486.924h-6.852l-3.26-26.429h10.113Z" transform="translate(-281.206 -203.126)" fill="#ffb8b8"/>
    <path id="Path_10" data-name="Path 10" d="M628.015,504.28H641.23v8.32H619.7a8.32,8.32,0,0,1,8.32-8.32Z" transform="translate(-273.349 -222.439)" fill="#2f2e41"/>
    <path id="Path_11" data-name="Path 11" d="M697.28,470.943a6,6,0,0,1,2.521-8.855l23.292-64.2,11.461,6.255L707.96,465.5a6.037,6.037,0,0,1-10.68,5.448Z" transform="translate(-399.333 -281.662)" fill="#ffb8b8"/>
    <path id="Path_12" data-name="Path 12" d="M807.365,489.433a6,6,0,0,1-1.617-9.063l-7.215-67.911,13.043.6,3,66.8a6.037,6.037,0,0,1-7.21,9.579Z" transform="translate(-444.453 -288.088)" fill="#ffb8b8"/>
    <circle id="Ellipse_2" data-name="Ellipse 2" cx="13.727" cy="13.727" r="13.727" transform="translate(328.377 76.883)" fill="#ffb8b8"/>
    <path id="Path_13" data-name="Path 13" d="M781.518,462.173H740.133l.05-.322c.074-.481,7.376-48.31,1.991-63.958a6.6,6.6,0,0,1,3.392-8.151h0c7.7-3.625,22.472-8.088,34.942,2.744a15.78,15.78,0,0,1,5.287,13.076Z" transform="translate(-418.693 -276.274)" fill="#6c63ff"/>
    <path id="Path_14" data-name="Path 14" d="M739.649,424.231l-18.631-3.78,8.733-20.7a7.823,7.823,0,0,1,15.149,3.911Z" transform="translate(-410.261 -279.896)" fill="#6c63ff"/>
    <path id="Path_15" data-name="Path 15" d="M796.045,432.393l-1.12-25.677c-.849-4.827,1.914-9.39,6.163-10.135s8.4,2.6,9.254,7.467l4.21,23.992Z" transform="translate(-442.794 -281.039)" fill="#6c63ff"/>
    <path id="Path_16" data-name="Path 16" d="M778.381,517.049c6.659,25.361,7.385,57.6,5.589,92.777l-8.942-1.118-16.208-67.068-8.942,68.185-10.06-.559c-3.005-36.9-5.932-68.585-1.118-89.424Z" transform="translate(-416.933 -334.223)" fill="#2f2e41"/>
    <path id="Path_17" data-name="Path 17" d="M773.143,346.835a4.434,4.434,0,0,1-7.65-2.463,4.5,4.5,0,0,1,.006-.869c.172-1.651,1.126-3.149.9-4.892a2.565,2.565,0,0,0-.469-1.2c-2.041-2.733-6.831,1.222-8.757-1.252-1.181-1.517.207-3.905-.7-5.6-1.2-2.238-4.739-1.134-6.96-2.359-2.472-1.363-2.324-5.156-.7-7.463a11.739,11.739,0,0,1,8.9-4.531,23.873,23.873,0,0,1,10.056,1.963c3.645,1.42,7.259,3.383,9.5,6.588,2.728,3.9,2.99,9.137,1.626,13.694C778.067,341.221,775.235,344.608,773.143,346.835Z" transform="translate(-421.995 -245.617)" fill="#2f2e41"/>
    <path id="Path_18" data-name="Path 18" d="M678.791,708.524H266.161a.665.665,0,1,1,0-1.331h412.63a.665.665,0,1,1,0,1.331Z" transform="translate(-209.329 -418.096)" fill="#3f3d56"/>
    <path id="Path_19" data-name="Path 19" d="M573.789,466.777H501.133a3.614,3.614,0,0,1-3.633-3.586V301.016a3.613,3.613,0,0,1,3.633-3.586h72.657a3.614,3.614,0,0,1,3.633,3.586V463.191A3.614,3.614,0,0,1,573.789,466.777Z" transform="translate(-311.667 -237.349)" fill="#fff"/>
    <rect id="Rectangle_19" data-name="Rectangle 19" width="79.922" height="1.118" transform="translate(185.833 112.556)" fill="#ccc"/>
    <rect id="Rectangle_20" data-name="Rectangle 20" width="79.922" height="1.118" transform="translate(186.113 176.332)" fill="#ccc"/>
    <rect id="Rectangle_21" data-name="Rectangle 21" width="1.118" height="169.905" transform="translate(210.984 60.082)" fill="#ccc"/>
    <rect id="Rectangle_22" data-name="Rectangle 22" width="1.118" height="169.905" transform="translate(238.928 60.082)" fill="#ccc"/>
  </g>
</svg>
