<svg xmlns="http://www.w3.org/2000/svg" width="477.303" height="246.62" viewBox="0 0 477.303 246.62">
  <g id="Group_12" data-name="Group 12" transform="translate(0 0)">
    <ellipse id="Ellipse_3" data-name="Ellipse 3" cx="238.652" cy="6.676" rx="238.652" ry="6.676" transform="translate(0 207.083)" fill="#e6e6e6"/>
    <path id="Path_20" data-name="Path 20" d="M813.715,438.165c-.3,0-.6.008-.908.008s-.607,0-.908-.008c-15.975-.363-27.554-10.345-24.607-20.818l7.187-25.548,1.816-6.464,32.2.549,1.957,6.324,7.7,24.892C841.414,427.63,829.835,437.8,813.715,438.165Z" transform="translate(-447.879 -296.741)" fill="#3f3d56"/>
    <path id="Path_21" data-name="Path 21" d="M837.046,392.208a35.54,35.54,0,0,1-35.971-.409l1.816-6.464,32.2.549Z" transform="translate(-454.476 -296.741)" opacity="0.2"/>
    <path id="Path_22" data-name="Path 22" d="M865.089,401.334c1.391-5.184,5.962-12.662,18.783-21.678,22.359-15.727,9.021-27.519,8.443-28.013-1.212-1.036-1.033-2.2.416-2.6a6.026,6.026,0,0,1,4.85,1.129c.724.6,17.426,14.862-7.8,32.605-22.706,15.971-17.878,26.4-17.823,26.5.609,1.115-.367,2.007-2.181,2s-3.779-.925-4.389-2.039C865.254,409,863.794,406.159,865.089,401.334Z" transform="translate(-483.877 -279.879)" fill="#3f3d56"/>
    <path id="Path_23" data-name="Path 23" d="M804.329,470.378a3.715,3.715,0,0,1-3.715-3.715v-16.1a3.715,3.715,0,1,1,7.43,0v16.1a3.715,3.715,0,0,1-3.715,3.715Z" transform="translate(-454.262 -325.231)" fill="#3f3d56"/>
    <path id="Path_24" data-name="Path 24" d="M794.867,409.133a3.715,3.715,0,0,1-4.928,1.822l-14.625-6.729a3.715,3.715,0,0,1,3.106-6.75l14.625,6.729a3.715,3.715,0,0,1,1.822,4.928Z" transform="translate(-441.542 -302.206)" fill="#3f3d56"/>
    <path id="Path_25" data-name="Path 25" d="M856.535,409.133a3.715,3.715,0,0,0,4.928,1.822l14.625-6.729a3.715,3.715,0,0,0-3.106-6.75l-14.625,6.729A3.715,3.715,0,0,0,856.535,409.133Z" transform="translate(-480.004 -302.206)" fill="#3f3d56"/>
    <path id="Path_26" data-name="Path 26" d="M859.692,470.378a3.715,3.715,0,0,0,3.715-3.715v-16.1a3.715,3.715,0,1,0-7.43,0v16.1a3.715,3.715,0,0,0,3.715,3.715Z" transform="translate(-479.903 -325.231)" fill="#3f3d56"/>
    <path id="Path_27" data-name="Path 27" d="M834.984,270.841a3.654,3.654,0,0,0,.737-2.9l-2.022-11.9-2.022-11.9a3.711,3.711,0,0,0-6.027-2.236l-9.291,7.7-5.6,4.638a35.268,35.268,0,0,0-11.3-.17l-5.392-4.468-9.29-7.7a3.711,3.711,0,0,0-6.027,2.236l-2.022,11.9-2.022,11.9a3.675,3.675,0,0,0,.162,1.865,35.5,35.5,0,1,0,60.111,1.039Z" transform="translate(-439.669 -229.919)" fill="#3f3d56"/>
    <path id="Path_28" data-name="Path 28" d="M792.866,251.728a1.851,1.851,0,0,0-.645.117,1.819,1.819,0,0,0-1.173,1.415L788.6,267.685a1.837,1.837,0,0,0,2.451,2.031l13.718-5.089a1.837,1.837,0,0,0,.533-3.137h0l-11.266-9.336a1.821,1.821,0,0,0-1.166-.425Z" transform="translate(-448.684 -234.861)" fill="#e6e6e6"/>
    <path id="Path_29" data-name="Path 29" d="M864.868,251.728a1.821,1.821,0,0,0-1.166.425l-11.266,9.336a1.837,1.837,0,0,0,.533,3.137l13.718,5.089a1.837,1.837,0,0,0,2.451-2.031l-2.452-14.425a1.819,1.819,0,0,0-1.173-1.415A1.851,1.851,0,0,0,864.868,251.728Z" transform="translate(-477.955 -234.861)" fill="#e6e6e6"/>
    <circle id="Ellipse_4" data-name="Ellipse 4" cx="4.954" cy="4.954" r="4.954" transform="translate(359.974 59.285)" fill="#e6e6e6"/>
    <ellipse id="Ellipse_5" data-name="Ellipse 5" cx="3.302" cy="1.238" rx="3.302" ry="1.238" transform="translate(361.625 60.523)" fill="#3f3d56"/>
    <path id="Path_30" data-name="Path 30" d="M675.14,125.04h4.541v5.573a2.27,2.27,0,0,1-2.27,2.27h0a2.27,2.27,0,0,1-2.27-2.27V125.04Z" transform="translate(-312.689 -57.912)" fill="#ff6584"/>
    <path id="Path_31" data-name="Path 31" d="M832.67,240.69c-.238.494-.469.993-.687,1.5a35.334,35.334,0,0,0-2.5,18.974c.465-.674.953-1.377,1.45-2.087a35.311,35.311,0,0,1,1.733-18.389Z" transform="translate(-467.466 -229.749)" fill="#3f3d56"/>
    <path id="Path_32" data-name="Path 32" d="M839.59,249.148c-.238.494-.469.993-.687,1.5a35.334,35.334,0,0,0-2.5,18.974c.465-.674.953-1.377,1.45-2.087a35.312,35.312,0,0,1,1.734-18.39Z" transform="translate(-470.671 -233.666)" fill="#3f3d56"/>
    <path id="Path_33" data-name="Path 33" d="M836.618,402.082l-.523-6.656-.523-6.656a2.054,2.054,0,0,0-3.21-1.532l-5.5,3.781-4.018,2.761a2.736,2.736,0,0,0-4.16,0l-4.018-2.761-5.5-3.781a2.054,2.054,0,0,0-3.21,1.532l-.523,6.656-.523,6.656a2.054,2.054,0,0,0,2.932,2.014l6.026-2.875,4.951-2.362a2.739,2.739,0,0,0,3.9,0l4.951,2.362,6.026,2.875a2.054,2.054,0,0,0,2.931-2.014Z" transform="translate(-456.246 -297.455)" fill="#6c63ff"/>
    <circle id="Ellipse_6" data-name="Ellipse 6" cx="1.238" cy="1.238" r="1.238" transform="translate(357.085 57.634)" fill="#e6e6e6"/>
    <circle id="Ellipse_7" data-name="Ellipse 7" cx="1.238" cy="1.238" r="1.238" transform="translate(370.294 57.634)" fill="#e6e6e6"/>
    <path id="Path_34" data-name="Path 34" d="M367.329,417.785c.3,0,.6.008.908.008s.607,0,.908-.008c15.975-.363,27.554-10.345,24.607-20.818l-7.187-25.548-1.817-6.464-32.2.549-1.957,6.324-7.7,24.892C339.63,407.25,351.209,417.422,367.329,417.785Z" transform="translate(-242.014 -287.302)" fill="#3f3d56"/>
    <path id="Path_35" data-name="Path 35" d="M357.715,371.828a35.54,35.54,0,0,0,35.971-.409l-1.816-6.465-32.2.549Z" transform="translate(-249.135 -287.302)" opacity="0.2"/>
    <path id="Path_36" data-name="Path 36" d="M307.409,389.92c-3.475-4.09-10.807-8.893-26.252-11.556-26.938-4.647-19.928-21.012-19.618-21.706.652-1.455-.007-2.431-1.488-2.17a6.026,6.026,0,0,0-3.9,3.1c-.4.851-9.391,20.889,21.005,26.13,27.357,4.719,27.454,16.208,27.447,16.322-.073,1.268,1.191,1.657,2.825.87s3.02-2.453,3.095-3.721C310.539,396.917,310.645,393.728,307.409,389.92Z" transform="translate(-201.381 -282.435)" fill="#3f3d56"/>
    <path id="Path_37" data-name="Path 37" d="M415.056,450a3.715,3.715,0,0,0,3.715-3.715v-16.1a3.715,3.715,0,1,0-7.43,0v16.1A3.715,3.715,0,0,0,415.056,450Z" transform="translate(-273.971 -315.792)" fill="#3f3d56"/>
    <path id="Path_38" data-name="Path 38" d="M411.9,388.754a3.715,3.715,0,0,0,4.928,1.822l14.626-6.729a3.715,3.715,0,1,0-3.106-6.75l-14.625,6.729A3.715,3.715,0,0,0,411.9,388.754Z" transform="translate(-274.072 -292.768)" fill="#3f3d56"/>
    <path id="Path_39" data-name="Path 39" d="M350.231,388.754a3.715,3.715,0,0,1-4.928,1.822l-14.626-6.729a3.715,3.715,0,1,1,3.106-6.75l14.625,6.729A3.715,3.715,0,0,1,350.231,388.754Z" transform="translate(-235.611 -292.768)" fill="#3f3d56"/>
    <path id="Path_40" data-name="Path 40" d="M359.693,450a3.715,3.715,0,0,1-3.715-3.715v-16.1a3.715,3.715,0,1,1,7.43,0v16.1A3.715,3.715,0,0,1,359.693,450Z" transform="translate(-248.33 -315.792)" fill="#3f3d56"/>
    <path id="Path_41" data-name="Path 41" d="M389.667,249.423a3.674,3.674,0,0,0,.162-1.865l-2.022-11.9-2.022-11.9a3.711,3.711,0,0,0-6.027-2.236l-9.29,7.7-5.392,4.468a35.267,35.267,0,0,0-11.3.17l-5.6-4.638-9.29-7.7a3.711,3.711,0,0,0-6.027,2.236l-2.022,11.9-2.022,11.9a3.653,3.653,0,0,0,.737,2.9,35.506,35.506,0,1,0,60.111-1.039Z" transform="translate(-233.719 -220.481)" fill="#3f3d56"/>
    <path id="Path_42" data-name="Path 42" d="M416.758,231.773l-11.266,9.336h0a1.837,1.837,0,0,0,.533,3.137l13.718,5.089a1.837,1.837,0,0,0,2.451-2.031l-2.452-14.425a1.819,1.819,0,0,0-1.173-1.415,1.851,1.851,0,0,0-.645-.117A1.821,1.821,0,0,0,416.758,231.773Z" transform="translate(-270.955 -225.423)" fill="#e6e6e6"/>
    <path id="Path_43" data-name="Path 43" d="M345.277,231.465a1.819,1.819,0,0,0-1.173,1.415L341.653,247.3a1.837,1.837,0,0,0,2.451,2.031l13.718-5.089a1.837,1.837,0,0,0,.533-3.137l-11.266-9.336a1.821,1.821,0,0,0-1.166-.425A1.85,1.85,0,0,0,345.277,231.465Z" transform="translate(-241.684 -225.422)" fill="#e6e6e6"/>
    <circle id="Ellipse_8" data-name="Ellipse 8" cx="4.954" cy="4.954" r="4.954" transform="translate(121.27 48.344)" fill="#e6e6e6"/>
    <ellipse id="Ellipse_9" data-name="Ellipse 9" cx="3.302" cy="1.238" rx="3.302" ry="1.238" transform="translate(122.921 49.582)" fill="#3f3d56"/>
    <path id="Path_44" data-name="Path 44" d="M2.27,0h0a2.27,2.27,0,0,1,2.27,2.27V7.843H0V2.27A2.27,2.27,0,0,1,2.27,0Z" transform="translate(128.7 64.03) rotate(180)" fill="#ff6584"/>
    <path id="Path_45" data-name="Path 45" d="M390.066,220.31c.238.494.469.993.687,1.5a35.335,35.335,0,0,1,2.5,18.974c-.465-.674-.953-1.377-1.45-2.087A35.311,35.311,0,0,0,390.066,220.31Z" transform="translate(-264.118 -220.31)" fill="#3f3d56"/>
    <path id="Path_46" data-name="Path 46" d="M383.146,228.768c.238.494.469.993.687,1.5a35.335,35.335,0,0,1,2.5,18.974c-.465-.674-.953-1.377-1.45-2.087a35.312,35.312,0,0,0-1.734-18.389Z" transform="translate(-260.913 -224.228)" fill="#3f3d56"/>
    <path id="Path_47" data-name="Path 47" d="M361.8,247.141l.523-6.656.523-6.656a2.054,2.054,0,0,1,3.21-1.532l5.5,3.781,4.018,2.761a2.736,2.736,0,0,1,4.16,0l4.018-2.761,5.5-3.781a2.054,2.054,0,0,1,3.21,1.532l.523,6.656.523,6.656a2.054,2.054,0,0,1-2.932,2.014l-6.026-2.875-4.951-2.362a2.739,2.739,0,0,1-3.9,0l-4.951,2.362-6.026,2.875a2.054,2.054,0,0,1-2.931-2.014Z" transform="translate(-251.026 -225.695)" fill="#6c63ff"/>
    <path id="Path_48" data-name="Path 48" d="M400.575,308.524c0,.684.554,0,1.238,0s1.238.684,1.238,0a1.238,1.238,0,0,0-2.477,0Z" transform="translate(-268.985 -260.593)" fill="#e6e6e6"/>
    <path id="Path_49" data-name="Path 49" d="M378.446,308.524c0,.684-.554,0-1.238,0s-1.238.684-1.238,0a1.238,1.238,0,1,1,2.477,0Z" transform="translate(-257.589 -260.593)" fill="#e6e6e6"/>
    <path id="Path_50" data-name="Path 50" d="M447.095,256.66v-7.872H407.736V328h39.359v-7.872H415.608V256.66Z" transform="translate(-188.842 -115.225)" fill="#3f3d56"/>
    <path id="Path_51" data-name="Path 51" d="M672.253,469.1v79.209h39.359V469.1Zm31.487,71.338H680.125V476.97H703.74Z" transform="translate(-394.812 -335.536)" fill="#6c63ff"/>
    <path id="Path_52" data-name="Path 52" d="M306.553,320.551V249.705h-7.872v78.718H338.04v-7.872Z" transform="translate(-138.333 -115.65)" fill="#6c63ff"/>
    <path id="Path_53" data-name="Path 53" d="M231.735,256.66v-7.872H192.376V328h39.359v-7.872H200.248V292.083h31.487v-7.872H200.248V256.66Z" transform="translate(-89.098 -115.225)" fill="#3f3d56"/>
    <path id="Path_54" data-name="Path 54" d="M805.417,256.66v-7.872H766.058V328h39.359v-7.872H773.93V292.083h31.487v-7.872H773.93V256.66Z" transform="translate(-354.797 -115.225)" fill="#6c63ff"/>
    <path id="Path_55" data-name="Path 55" d="M99.808,249.493v65.059L79.053,293.8l-.047.048-.044-.044L57.744,315.018V249.247H49.872v78.718h7.872v-1.814L79.01,304.885l20.8,20.8v2.526h7.872V249.493Z" transform="translate(-23.098 -115.438)" fill="#3f3d56"/>
    <path id="Path_56" data-name="Path 56" d="M674.407,249.493v1.813l-21.266,21.266-20.8-20.8v-2.526H624.47v78.718h7.872V262.906L653.1,283.661l.048-.048.044.044,21.219-21.218v65.772h7.871V249.493Z" transform="translate(-289.221 -115.438)" fill="#3f3d56"/>
    <circle id="Ellipse_10" data-name="Ellipse 10" cx="4.832" cy="4.832" r="4.832" transform="translate(175.055 75.9)" fill="#6c63ff"/>
    <circle id="Ellipse_11" data-name="Ellipse 11" cx="4.832" cy="4.832" r="4.832" transform="translate(55.874 129.586)" fill="#6c63ff"/>
    <circle id="Ellipse_12" data-name="Ellipse 12" cx="4.832" cy="4.832" r="4.832" transform="translate(151.433 236.956)" fill="#6c63ff"/>
    <circle id="Ellipse_13" data-name="Ellipse 13" cx="4.832" cy="4.832" r="4.832" transform="translate(272.762 90.395)" fill="#6c63ff"/>
    <circle id="Ellipse_14" data-name="Ellipse 14" cx="4.832" cy="4.832" r="4.832" transform="translate(415.028 232.661)" fill="#6c63ff"/>
    <circle id="Ellipse_15" data-name="Ellipse 15" cx="4.832" cy="4.832" r="4.832" transform="translate(419.86 105.964)" fill="#6c63ff"/>
    <circle id="Ellipse_16" data-name="Ellipse 16" cx="4.832" cy="4.832" r="4.832" transform="translate(358.659 192.934)" fill="#6c63ff"/>
  </g>
</svg>
